<svg viewBox="0 0 32 32" xmlns="http://www.w3.org/2000/svg"><path d="M10.2 10A1.2 1.2 0 009 11.2v3.6a1.2 1.2 0 001.2 1.2h1.191c-.044.78-.14 1.546-.283 2.299a29.76 29.76 0 01-.495 2.187c-.089.33-.168.624-.239.88a.502.502 0 00.484.634h1.466c.4 0 .762-.238.914-.607.112-.274.239-.588.38-.944.27-.658.525-1.394.767-2.206.249-.806.493-2.083.615-3.443v-3.6a1.2 1.2 0 00-1.2-1.2h-3.6zM18.2 10a1.2 1.2 0 00-1.2 1.2v3.6a1.2 1.2 0 001.2 1.2h1.191c-.044.78-.14 1.546-.283 2.299a29.76 29.76 0 01-.495 2.187c-.089.33-.168.624-.239.88a.502.502 0 00.484.634h1.466c.4 0 .762-.238.914-.607.112-.274.239-.588.38-.944.27-.658.525-1.394.767-2.206.249-.806.493-2.083.615-3.443v-3.6a1.2 1.2 0 00-1.2-1.2h-3.6z"/></svg>