<svg viewBox="0 0 32 32" xmlns="http://www.w3.org/2000/svg"><path d="M10 24V8h6.228c1.716 0 3.005.385 3.866 1.156.865.766 1.298 1.748 1.298 2.946 0 .942-.265 1.705-.797 2.289-.532.578-1.203.96-2.013 1.148v.156a3.414 3.414 0 011.664.516c.521.318.944.76 1.268 1.328.324.568.486 1.247.486 2.04 0 .848-.205 1.606-.615 2.273-.405.666-1.005 1.192-1.8 1.578-.795.38-1.775.57-2.94.57H10zm3.289-2.766h2.68c.922 0 1.59-.182 2.006-.547.42-.364.63-.846.63-1.445 0-.661-.23-1.203-.691-1.625-.456-.422-1.079-.633-1.868-.633h-2.757v4.25zm0-6.539h2.438c.673 0 1.232-.18 1.678-.539.446-.364.668-.862.668-1.492 0-.578-.2-1.044-.6-1.398-.395-.354-.956-.532-1.686-.532H13.29v3.961z" /></svg>