<svg viewBox="0 0 32 32" xmlns="http://www.w3.org/2000/svg"><path fill-rule="evenodd" clip-rule="evenodd" d="M9.778 8h12.444C23.204 8 24 8.796 24 9.778v12.444c0 .982-.796 1.778-1.778 1.778H9.778A1.777 1.777 0 018 22.222V9.778C8 8.796 8.796 8 9.778 8zm2.979 11.497V21h6.576v-1.705H15.46v-.068l1.346-1.411c.634-.617 1.123-1.145 1.469-1.585.348-.443.591-.846.73-1.209a3.08 3.08 0 00.207-1.103c0-.572-.137-1.076-.41-1.512a2.794 2.794 0 00-1.149-1.031c-.49-.25-1.064-.376-1.725-.376-.646 0-1.215.13-1.707.39-.49.26-.871.628-1.144 1.103-.274.476-.41 1.036-.41 1.681h1.851c-.003-.472.123-.843.378-1.112.259-.273.598-.41 1.018-.41.406 0 .742.127 1.01.38.27.251.405.593.405 1.027 0 .392-.11.746-.329 1.064-.22.318-.539.692-.96 1.123l-3.283 3.251z" /></svg>