<svg version="1.1" xmlns="http://www.w3.org/2000/svg" viewBox="0 0 1024 1024">
  <path d="M582.569 377.905l-121.905-121.905v83.978c-105.651 13.545-189.629 102.943-189.629 214.011s83.978 200.466 189.629 214.011v-54.18c-75.853-13.545-135.45-78.561-135.45-159.831s59.597-146.286 135.45-159.831v105.651l121.905-121.905zM701.765 526.899c-5.42-37.926-18.964-73.142-43.343-105.651l-37.926 37.926c13.545 21.673 24.381 43.343 27.090 67.725h54.18zM514.844 713.82v54.18c37.926-5.42 73.142-18.964 105.651-43.343l-37.926-37.926c-21.673 13.545-43.343 24.381-67.725 27.090zM620.495 648.804l37.926 37.926c24.379-32.509 40.635-67.725 43.343-105.651h-54.18c-2.708 24.381-13.545 46.054-27.090 67.725z"/>
</svg>
