<svg version="1.1" xmlns="http://www.w3.org/2000/svg" viewBox="0 0 1024 1024">
  <path d="M415.828 377.905l121.905-121.905v83.978c105.651 13.545 189.629 102.943 189.629 214.011s-83.978 200.466-189.629 214.011v-54.18c75.853-13.545 135.45-78.561 135.45-159.831s-59.597-146.286-135.45-159.831v105.651l-121.905-121.905zM296.632 526.899c5.42-37.926 18.964-73.142 43.343-105.651l37.926 37.926c-13.545 21.673-24.381 43.343-27.090 67.725h-54.18zM483.553 713.82v54.18c-37.926-5.42-73.142-18.964-105.651-43.343l37.926-37.926c21.673 13.545 43.343 24.381 67.725 27.090zM377.902 648.804l-37.926 37.926c-24.379-32.509-40.635-67.725-43.343-105.651h54.18c2.708 24.381 13.545 46.054 27.090 67.725z"/>
</svg>
