<svg viewBox="0 0 32 32" xmlns="http://www.w3.org/2000/svg"><path fill-rule="evenodd" clip-rule="evenodd" d="M15.766 23.763c-1.128 0-2.154-.126-3.079-.379-.924-.252-1.835-.691-2.732-1.316v-3.706h2.375l.326 2.18c.308.266.739.484 1.292.652.56.162 1.167.242 1.818.242.834 0 1.471-.168 1.913-.505.441-.344.662-.807.662-1.39a1.77 1.77 0 00-.63-1.38c-.414-.378-1.143-.73-2.186-1.052a21.375 21.375 0 01-.87-.272H9v-1.433h13.375v1.433h-1.908c.635.719.953 1.613.953 2.683 0 .878-.235 1.632-.704 2.264-.47.632-1.132 1.12-1.986 1.463-.848.344-1.836.516-2.964.516zm-5.632-11.498c0 .85.203 1.577.61 2.183h5.033c-.912-.318-1.557-.621-1.934-.909-.434-.344-.651-.772-.651-1.284 0-.597.235-1.06.704-1.39.47-.33 1.072-.495 1.807-.495.575 0 1.086.063 1.534.19.456.126.817.273 1.083.442l.4 2.106h2.3V9.654c-.658-.526-1.443-.937-2.354-1.232-.903-.295-1.944-.435-3.12-.421-1.065.014-2.004.204-2.816.569-.813.365-1.45.866-1.913 1.505-.455.632-.683 1.362-.683 2.19z" /></svg>