<svg xmlns="http://www.w3.org/2000/svg" viewBox="0 0 512 512"><path d="M344 128h-44.882v129.486c0 11.683-3.938 21.331-11.816 28.942-7.808 7.611-18.241 11.416-31.303 11.416-12.99 0-23.425-3.805-31.303-11.416-7.879-7.611-11.816-17.259-11.816-28.942V127.999h-44.881v133.192c0 14.955 3.662 28.04 10.987 39.256 7.325 11.217 17.585 19.963 30.784 26.238 13.198 6.209 28.608 9.313 46.229 9.313s33.031-3.104 46.229-9.313c13.199-6.275 23.459-15.021 30.784-26.238 7.325-11.216 10.987-24.301 10.987-39.256V127.999zm8 256.01V360H160v24.01h192z"/></svg>