<svg version="1.1" xmlns="http://www.w3.org/2000/svg" viewBox="0 0 1024 1024">
  <path d="M662.981 475.991c0 40.179-12.452 77.437-33.669 108.17l113.088 113.083-41.487 41.48-111.949-111.949c-32.253 24.991-72.709 39.905-116.675 39.905-105.331 0-190.689-85.379-190.689-190.692s85.358-190.689 190.689-190.689c105.331 0 190.692 85.379 190.692 190.692zM322.673 475.988c0 82.504 67.118 149.619 149.617 149.619 82.501 0 149.619-67.116 149.619-149.619 0-82.501-67.116-149.617-149.619-149.617-82.501 0-149.617 67.118-149.617 149.617zM492.826 385.001v73.344h73.344v41.070h-73.344v73.341h-41.070v-73.341h-73.344v-41.070h73.344v-73.344h41.070z"/>
</svg>
